<svg xmlns="http://www.w3.org/2000/svg" width="256" height="256" viewBox="0 0 256 256"><circle cx="45.4" cy="43.3" r="5.5" fill="#fff"/><circle cx="58.4" cy="45.7" r="8" fill="#fff"/><circle cx="118.2" cy="123" r="5.4" fill="#fff"/><path fill="#fff" d="M58.754 55.869l9.9-9.9 143.365 143.366-9.9 9.9zM202.1 199.3l19.9 14.9 4.9-4.9-14.9-19.9-9.9 9.9z"/><path fill="#fff" d="M223.2 213l6.7 5c.9.7 1.5.1.8-.8l-5-6.7zM68.6 46l-9.9 9.9 8.5 13.4L82 54.5 68.6 46zm33.1 52.9l9.9-9.9-8.5-13.4-14.8 14.8 13.4 8.5z"/><path fill="#fff" d="M116.4 120.5c-21 16.3-50.6 15.5-69-2.9s-19.3-51.7.2-72.8L43.8 41l-3.6 3.3c-21.1 21.1-20.1 56.1 2.1 78.4s57.3 23.1 78.3 2z"/></svg>