<svg xmlns="http://www.w3.org/2000/svg" width="256" height="256" viewBox="0 0 256 256"><path fill="#fff" d="M228.7 145.8h-.1a33.8 33.8 0 0 0-20.9-3.8 35.4 35.4 0 0 1-16.1-1.3 36.4 36.4 0 0 1-6.5-2.8l-4.2-2.7a36.3 36.3 0 0 1-14.4-28.9 34.9 34.9 0 0 1 .6-6.5 36.7 36.7 0 0 1 6.6-15.1 35.1 35.1 0 0 0 7.2-21.3 47.2 47.2 0 0 0-.5-6.4 52.6 52.6 0 0 0-104.6 7.1v.9a32.5 32.5 0 0 0 6.7 19.4 36.4 36.4 0 0 1 6.6 14.7 40.5 40.5 0 0 1 .7 7 34.3 34.3 0 0 1-.5 5.6h-.1a35.7 35.7 0 0 1-18.3 26 36.4 36.4 0 0 1-6.5 2.8 35.4 35.4 0 0 1-16.1 1.3 33.8 33.8 0 0 0-20.9 3.8h-.1A52.5 52.5 0 0 0 71.2 241a62.1 62.1 0 0 0 5.9-2.6 34.6 34.6 0 0 0 15.1-16.5 36.7 36.7 0 0 1 10.1-13.1 35.3 35.3 0 0 1 5.5-3.7l1.4-.7a26.9 26.9 0 0 1 7.8-2.3h.2a78.1 78.1 0 0 1 21.6 0h.2a26.9 26.9 0 0 1 7.8 2.3l1.4.7a35.3 35.3 0 0 1 5.5 3.7 36.7 36.7 0 0 1 10.1 13.1 34.6 34.6 0 0 0 15.1 16.5 62.1 62.1 0 0 0 5.9 2.6 52.5 52.5 0 0 0 43.9-95.2zm-169 59.1a14.9 14.9 0 1 1 5.9-20.2 14.9 14.9 0 0 1-5.9 20.2zm61.5-153.8a14.9 14.9 0 1 1-5.9 20.2 14.9 14.9 0 0 1 5.9-20.2zm7.2 138.9a38.2 38.2 0 1 1 38.1-38.2 38.2 38.2 0 0 1-38.1 38.2zm82.2 14.9a14.9 14.9 0 1 1 5.9-20.2 14.9 14.9 0 0 1-5.9 20.2z"/></svg>