<svg xmlns="http://www.w3.org/2000/svg"><symbol id="fidget-cube-1" viewBox="0 0 237.3 256"><circle cx="113" cy="143.6" r="21.7" fill="#fff"/><path fill="#fff" d="M159.3 73.8A21.7 21.7 0 1 0 181 95.5a21.7 21.7 0 0 0-21.7-21.7zm0 95a21.7 21.7 0 1 0 21.7 21.7 21.7 21.7 0 0 0-21.7-21.7zm-92.6-95a21.7 21.7 0 1 0 21.7 21.7 21.7 21.7 0 0 0-21.7-21.7zm0 95a21.7 21.7 0 1 0 21.7 21.7 21.7 21.7 0 0 0-21.7-21.7z"/><path fill="#fff" d="M226 118.9V67.6A35.9 35.9 0 0 0 215 41a35.9 35.9 0 0 0-26.6-11h-64.7V19.5c31.2-.4 39.8-2.6 39.8-2.6 0-17.5-17-16.9-17-16.9h-67S62.6-.6 62.6 16.9c0 0 8.5 2.2 39.7 2.6V30H0v226h188.4a37.6 37.6 0 0 0 37.6-37.7V167a31.2 31.2 0 0 0 0-48.1zm-25.4-7.1v106.5a12.3 12.3 0 0 1-12.2 12.3H37.7a12.3 12.3 0 0 1-12.3-12.3V67.6a12.3 12.3 0 0 1 12.3-12.2h150.7a12.3 12.3 0 0 1 12.2 12.2z"/></symbol><symbol id="fidget-chain-1" viewBox="0 0 256 223.4"><path fill="#fff" d="M250.6 92.9A35.3 35.3 0 0 0 221 76.1a82.9 82.9 0 0 1-9.5-11.8 80 80 0 0 1-6.4-13.7A35.6 35.6 0 0 0 143 16.2a78 78 0 0 1-15 1.8 78 78 0 0 1-15-1.8 35.6 35.6 0 0 0-62.1 34.4 80 80 0 0 1-6.4 13.7A82.9 82.9 0 0 1 35 76.1a35.6 35.6 0 0 0 0 71.1 95.9 95.9 0 0 1 9.5 11.8 83.7 83.7 0 0 1 6.4 13.7 36.2 36.2 0 0 0-3.3 15.1 35.5 35.5 0 0 0 65.4 19.3 78.2 78.2 0 0 1 15-1.7 78.2 78.2 0 0 1 15 1.7 35.5 35.5 0 0 0 65.4-19.3 36.2 36.2 0 0 0-3.3-15.1 83.7 83.7 0 0 1 6.4-13.7 95.9 95.9 0 0 1 9.5-11.8 35.1 35.1 0 0 0 18.3-5.4 35.5 35.5 0 0 0 11.3-48.9zM46.9 118.8a13.3 13.3 0 1 1-4.3-18.4 13.4 13.4 0 0 1 4.3 18.4zm126-96.6a13.4 13.4 0 1 1-13.4 13.4 13.4 13.4 0 0 1 13.4-13.4zm-89.8 0a13.4 13.4 0 1 1-13.3 13.4 13.4 13.4 0 0 1 13.3-13.4zm0 178.9a13.3 13.3 0 1 1 13.4-13.3 13.3 13.3 0 0 1-13.4 13.3zm89.8 0a13.3 13.3 0 1 1 13.3-13.3 13.3 13.3 0 0 1-13.3 13.3zm8.9-60.6a87.4 87.4 0 0 1-9.5 11.8 35.7 35.7 0 0 0-29.3 16.2 78 78 0 0 1-15 1.8 78 78 0 0 1-15-1.8 35.7 35.7 0 0 0-29.3-16.2 87.4 87.4 0 0 1-9.5-11.8 83.7 83.7 0 0 1-6.4-13.7 36.2 36.2 0 0 0 0-30.2 80 80 0 0 1 6.4-13.7 76.5 76.5 0 0 1 9.5-11.8A35.7 35.7 0 0 0 113 54.9a78 78 0 0 1 15-1.8 78 78 0 0 1 15 1.8 35.7 35.7 0 0 0 29.3 16.2 76.5 76.5 0 0 1 9.5 11.8 80 80 0 0 1 6.4 13.7 36.2 36.2 0 0 0 0 30.2 83.7 83.7 0 0 1-6.4 13.7zm45.7-17.5a13.3 13.3 0 1 1 4.2-18.4 13.4 13.4 0 0 1-4.2 18.4z"/></symbol><symbol id="fidget-spinner-1" viewBox="0 0 256 232.8"><path fill="#fff" d="M228.7 134.2h-.1a33.7 33.7 0 0 0-20.9-3.7 38.4 38.4 0 0 1-16.1-1.3 60.6 60.6 0 0 1-6.5-2.8c-1.4-.8-2.8-1.8-4.2-2.8a36.4 36.4 0 0 1-14.4-28.9 34.2 34.2 0 0 1 .6-6.5 36.6 36.6 0 0 1 6.6-15.2 35 35 0 0 0 7.2-21.2 47.4 47.4 0 0 0-.5-6.5 52.6 52.6 0 0 0-104.6 7.3v.8a32.5 32.5 0 0 0 6.7 19.4 37 37 0 0 1 6.6 14.7 41.7 41.7 0 0 1 .7 7.1 35.3 35.3 0 0 1-.5 5.6h-.1a36.1 36.1 0 0 1-18.3 26.1 60.6 60.6 0 0 1-6.5 2.8 38.4 38.4 0 0 1-16.1 1.3 33.7 33.7 0 0 0-20.9 3.7h-.1a52.6 52.6 0 0 0 43.9 95.3 62.8 62.8 0 0 0 5.9-2.7 34.6 34.6 0 0 0 15.1-16.5 36.7 36.7 0 0 1 10.1-13.1 34.8 34.8 0 0 1 5.5-3.6l1.4-.8a26.9 26.9 0 0 1 7.8-2.3h.2a78.1 78.1 0 0 1 21.6 0h.2a26.9 26.9 0 0 1 7.8 2.3l1.4.8a34.8 34.8 0 0 1 5.5 3.6 36.7 36.7 0 0 1 10.1 13.1 34.6 34.6 0 0 0 15.1 16.5 62.8 62.8 0 0 0 5.9 2.7 52.6 52.6 0 0 0 43.9-95.3zm-169 59.1a14.9 14.9 0 1 1 5.9-20.2 14.9 14.9 0 0 1-5.9 20.2zm61.5-153.8a14.9 14.9 0 1 1-5.9 20.2 14.9 14.9 0 0 1 5.9-20.2zm7.2 139a38.2 38.2 0 1 1 38.1-38.2 38.2 38.2 0 0 1-38.1 38.2zm82.2 14.8a14.9 14.9 0 1 1 5.9-20.2 14.8 14.8 0 0 1-5.9 20.2z"/></symbol></svg>