<svg xmlns="http://www.w3.org/2000/svg" width="256" height="256" viewBox="0 0 256 256"><path fill="#fff" d="M226.9 145.4h-.2a32.9 32.9 0 0 0-20.4-3.7 37 37 0 0 1-15.8-1.3 39.6 39.6 0 0 1-6.4-2.7 29 29 0 0 1-4.1-2.7 35.6 35.6 0 0 1-14.2-28.4 32.8 32.8 0 0 1 .6-6.3 35.2 35.2 0 0 1 6.5-14.9 34.5 34.5 0 0 0 7.1-21c-.1-2.1-.2-4.2-.5-6.3a51.7 51.7 0 0 0-102.8 7.2v.8a31.9 31.9 0 0 0 6.7 19.1 35.4 35.4 0 0 1 6.4 14.4 40.4 40.4 0 0 1 .7 6.9 33.1 33.1 0 0 1-.5 5.5h-.1a35.6 35.6 0 0 1-18 25.6 39.6 39.6 0 0 1-6.4 2.7 37 37 0 0 1-15.8 1.3 32.9 32.9 0 0 0-20.4 3.7h-.2A51.7 51.7 0 0 0 72.2 239l5.8-2.6a34.5 34.5 0 0 0 14.9-16.2 35.5 35.5 0 0 1 9.9-12.9 41 41 0 0 1 5.3-3.6l1.4-.7a27.2 27.2 0 0 1 7.7-2.3h.2a83.6 83.6 0 0 1 21.2 0h.2a27.2 27.2 0 0 1 7.7 2.3l1.4.7a41 41 0 0 1 5.3 3.6 35.5 35.5 0 0 1 9.9 12.9 34.5 34.5 0 0 0 14.9 16.2l5.8 2.6a51.7 51.7 0 0 0 43.1-93.6zM61 203.5a14.6 14.6 0 1 1 5.8-19.8 14.7 14.7 0 0 1-5.8 19.8zm60.3-151a14.6 14.6 0 1 1-5.7 19.8 14.5 14.5 0 0 1 5.7-19.8zm7 136.4a37.5 37.5 0 1 1 37.5-37.5 37.4 37.4 0 0 1-37.5 37.5zm80.8 14.6a14.6 14.6 0 1 1 5.7-19.8 14.6 14.6 0 0 1-5.7 19.8z"/></svg>