<svg xmlns="http://www.w3.org/2000/svg" width="256" height="256" viewBox="0 0 256 256"><circle cx="122.4" cy="143.6" r="21.7" fill="#fff"/><path fill="#fff" d="M168.7 73.8a21.7 21.7 0 1 0 21.6 21.7 21.7 21.7 0 0 0-21.6-21.7zm0 95a21.7 21.7 0 1 0 21.6 21.7 21.7 21.7 0 0 0-21.6-21.7zM76 73.8a21.7 21.7 0 1 0 21.7 21.7A21.7 21.7 0 0 0 76 73.8zm0 95a21.7 21.7 0 1 0 21.7 21.7A21.7 21.7 0 0 0 76 168.8z"/><path fill="#fff" d="M235.4 118.9V67.6a36.3 36.3 0 0 0-11-26.6 36.2 36.2 0 0 0-26.7-11H133V19.5c31.3-.4 39.8-2.6 39.8-2.6C172.8-.6 155.9 0 155.9 0H88.8S71.9-.6 71.9 16.9c0 0 8.5 2.2 39.8 2.6V30H9.3v226h188.4a37.6 37.6 0 0 0 37.7-37.7V167a31.2 31.2 0 0 0 0-48.1zm-25.5-7.1v106.5a12.3 12.3 0 0 1-12.2 12.3H47a12.3 12.3 0 0 1-12.2-12.3V67.6A12.3 12.3 0 0 1 47 55.4h150.7a12.3 12.3 0 0 1 12.2 12.2z"/></svg>