<svg xmlns="http://www.w3.org/2000/svg" width="256" height="256" viewBox="0 0 256 256"><path fill="#404040" d="M209 142.3h-.1a27.7 27.7 0 0 0-16.7-3 30.3 30.3 0 0 1-13-1 26.6 26.6 0 0 1-5.2-2.3 24.6 24.6 0 0 1-3.4-2.2 29.2 29.2 0 0 1-5.8-40.8 28 28 0 0 0 5.8-17.1 45.5 45.5 0 0 0-.4-5.2A42.3 42.3 0 0 0 86 76.6v.7a26.1 26.1 0 0 0 5.4 15.6 29.4 29.4 0 0 1 5.3 11.8 27.6 27.6 0 0 1 .6 5.7 34.2 34.2 0 0 1-.4 4.5h-.1a29.1 29.1 0 0 1-14.8 21 26.6 26.6 0 0 1-5.2 2.3 30.3 30.3 0 0 1-13 1 27.7 27.7 0 0 0-16.7 3H47A42.3 42.3 0 0 0 82.3 219l4.7-2.2a27.7 27.7 0 0 0 12.2-13.3 28.6 28.6 0 0 1 8.2-10.5 21.6 21.6 0 0 1 4.3-2.9l1.2-.6a20 20 0 0 1 6.3-1.9h.1a63.4 63.4 0 0 1 17.4 0h.1a20 20 0 0 1 6.3 1.9l1.2.6a21.6 21.6 0 0 1 4.3 2.9 28.6 28.6 0 0 1 8.2 10.5 27.7 27.7 0 0 0 12.2 13.3l4.7 2.2a42.3 42.3 0 0 0 35.3-76.7zM73.1 189.9a12.1 12.1 0 0 1-16.3-4.8 12 12 0 1 1 16.3 4.8zm49.4-123.8a12.1 12.1 0 0 1 16.3 4.8 12 12 0 1 1-16.3-4.8zm5.8 111.8a30.7 30.7 0 1 1 30.7-30.7 30.6 30.6 0 0 1-30.7 30.7zm66.1 12a12 12 0 0 1-16.2-4.8 12 12 0 0 1 21-11.5 12 12 0 0 1-4.8 16.3z"/></svg>