<svg xmlns="http://www.w3.org/2000/svg" width="256" height="256" viewBox="0 0 256 256"><path fill="#fff" d="M250.6 109.2A35.5 35.5 0 0 0 221 92.5a90.1 90.1 0 0 1-9.5-11.9 79.2 79.2 0 0 1-6.4-13.6 36.2 36.2 0 0 0 3.3-15.1A35.5 35.5 0 0 0 143 32.6a87 87 0 0 1-15 1.7 87 87 0 0 1-15-1.7 35.5 35.5 0 0 0-65.4 19.3A36.2 36.2 0 0 0 50.9 67a79.2 79.2 0 0 1-6.4 13.6A90.1 90.1 0 0 1 35 92.5a35.6 35.6 0 0 0-18.3 65.7 36 36 0 0 0 18.3 5.4 82.9 82.9 0 0 1 9.5 11.8 79.2 79.2 0 0 1 6.4 13.6 36.2 36.2 0 0 0-3.3 15.1 35.5 35.5 0 0 0 65.4 19.3 87 87 0 0 1 15-1.7 87 87 0 0 1 15 1.7 35.5 35.5 0 0 0 65.4-19.3 36.2 36.2 0 0 0-3.3-15.1 79.2 79.2 0 0 1 6.4-13.6 82.9 82.9 0 0 1 9.5-11.8 36 36 0 0 0 18.3-5.4 35.6 35.6 0 0 0 11.3-49zM46.9 135.1a13.3 13.3 0 1 1-4.3-18.4 13.4 13.4 0 0 1 4.3 18.4zm126-96.6a13.4 13.4 0 1 1-13.4 13.4 13.4 13.4 0 0 1 13.4-13.4zm-89.8 0a13.4 13.4 0 1 1-13.3 13.4 13.4 13.4 0 0 1 13.3-13.4zm0 179a13.4 13.4 0 1 1 13.4-13.4 13.4 13.4 0 0 1-13.4 13.4zm89.8 0a13.4 13.4 0 1 1 13.3-13.4 13.4 13.4 0 0 1-13.3 13.4zm8.9-60.7a81.6 81.6 0 0 1-9.5 11.8 35.7 35.7 0 0 0-29.3 16.2 78 78 0 0 1-15 1.8 78 78 0 0 1-15-1.8 35.7 35.7 0 0 0-29.3-16.2 81.6 81.6 0 0 1-9.5-11.8 83.7 83.7 0 0 1-6.4-13.7 36.2 36.2 0 0 0 0-30.2 83.7 83.7 0 0 1 6.4-13.7 81.6 81.6 0 0 1 9.5-11.8A35.7 35.7 0 0 0 113 71.2a78 78 0 0 1 15-1.8 78 78 0 0 1 15 1.8 35.7 35.7 0 0 0 29.3 16.2 81.6 81.6 0 0 1 9.5 11.8 83.7 83.7 0 0 1 6.4 13.7 36.2 36.2 0 0 0 0 30.2 83.7 83.7 0 0 1-6.4 13.7zm45.7-17.5a13.3 13.3 0 1 1 4.2-18.4 13.4 13.4 0 0 1-4.2 18.4z"/></svg>