<svg xmlns="http://www.w3.org/2000/svg"><symbol id="facebook-1" viewBox="0 0 256 256"><path fill="#231f20" d="M25 25v206h109.7v-79.6h-26.8v-32.5h26.8V94.3a40 40 0 0 1 .6-7.7c2-12.5 8.4-20 15-24.4a38 38 0 0 1 21.5-6.5h26.9v29.2h-20.1c-6.2 0-9 3.9-10.3 7.2a14.7 14.7 0 0 0-1.1 5.9v20.9h31l-4.3 32.5h-26.7V231H231V25z"/></symbol><symbol id="instagram-1" viewBox="0 0 256 256"><circle cx="128" cy="128" r="24.4" fill="#231f20"/><path fill="#231f20" d="M159.4 68.5H96.6a28.1 28.1 0 0 0-28.1 28.1v62.8a28.1 28.1 0 0 0 28.1 28.1h62.8a28.1 28.1 0 0 0 28.1-28.1V96.6a28.1 28.1 0 0 0-28.1-28.1zM128 165.4a37.4 37.4 0 1 1 37.4-37.4 37.5 37.5 0 0 1-37.4 37.4zm39.5-67.2a8.8 8.8 0 1 1 8.9-8.8 8.8 8.8 0 0 1-8.9 8.8z"/><path fill="#231f20" d="M158.3 27.7H97.7A72.6 72.6 0 0 0 25 100.3v55.4a72.6 72.6 0 0 0 72.7 72.6h60.6a72.6 72.6 0 0 0 72.7-72.6v-55.4a72.6 72.6 0 0 0-72.7-72.6zm42.5 131a42 42 0 0 1-42.1 42.1H97.3a42 42 0 0 1-42.1-42.1V97.3a42 42 0 0 1 42.1-42.1h61.4a42 42 0 0 1 42.1 42.1z"/></symbol><symbol id="search-1" viewBox="0 0 256 256"><path d="M227.4 209.7l-60.5-60.4a78.3 78.3 0 1 0-17.3 17.5l60.4 60.3a12.3 12.3 0 0 0 17.4-17.4zm-124-49a57.1 57.1 0 1 1 57-57.1 57.1 57.1 0 0 1-57 57.1z"/></symbol><symbol id="shopping-cart-1" viewBox="0 0 256 256"><path d="M222 51h-29.6l-6.2 18.1-2.5 7.4H34a9.1 9.1 0 0 0-8.6 11.9l24.8 73.1a9.1 9.1 0 0 0 8.6 6.2h106.7a9.1 9.1 0 0 0 8.6-6.2l28.8-85h-.1l2.5-7.4H222a9.1 9.1 0 0 0 0-18.1zm-63.2 99.9H65.4l-18-57.6H177z"/><circle cx="168.9" cy="190" r="15" transform="rotate(-67.5 168.861 190.004)"/><circle cx="55.4" cy="190" r="15"/></symbol><symbol id="toggle-nav-close-1" viewBox="0 0 256 256"><path d="M227.4 209.7L145.6 128l81.5-81.5a12.5 12.5 0 1 0-17.4-17.9L128 110.4 46.3 28.6a12.7 12.7 0 0 0-17.7 0 12.7 12.7 0 0 0 0 17.7l81.8 81.7-81.5 81.5a12.5 12.5 0 1 0 17.4 17.9l81.7-81.8 81.7 81.8a12.7 12.7 0 0 0 17.7 0 12.7 12.7 0 0 0 0-17.7z"/></symbol><symbol id="toggle-nav-hamburger-1" viewBox="0 0 256 256"><path d="M34.1 82.3h187.8a9.1 9.1 0 0 0 0-18.2H34.1a9.1 9.1 0 0 0 0 18.2z"/><rect width="206" height="18.27" x="25" y="118.9" rx="9.1" ry="9.1"/><path d="M221.9 173.7H34.1a9.1 9.1 0 1 0 0 18.2h187.8a9.1 9.1 0 0 0 0-18.2z"/></symbol><symbol id="twitter-1" viewBox="0 0 256 256"><path d="M125.7 95.2s-6.1-30.2 20.4-46 53.2 6.1 53.2 6.1a140.7 140.7 0 0 0 27.1-9.7s-4.6 17.4-15.3 21.5c0 0 8.7 2.5 19.9-4.1 0 0-4.6 12.3-18.9 19.9 0 0 6.6 75.2-63.9 113.5S25 192.8 25 192.8s41.7 3.9 63.4-17.9c0 0-31.2-.5-38.9-31.2l22.5 1.1s-37.8-7.7-37.8-42.5c0 0 9.2 4.1 18.4 4.1 0 0-30.7-19.9-12.8-56.2 0 0 36.3 48.1 85.9 45z"/></symbol></svg>