<svg xmlns="http://www.w3.org/2000/svg"><symbol id="cancel-1" viewBox="0 0 256 256"><path fill="#fff" d="M227 209.4L145.5 128l81.2-81.2a12.4 12.4 0 1 0-16.4-18.7l-1 .9-81.3 81.5L46.6 29A12.4 12.4 0 1 0 29 46.6l81.4 81.4-81.1 81.2a12.4 12.4 0 1 0 16.3 18.7l1-.9 81.4-81.5 81.3 81.5a12.5 12.5 0 0 0 17.7-17.6z"/></symbol><symbol id="accessory-1" viewBox="0 0 256 256"><path fill="#fff" d="M250.6 109.2A35.5 35.5 0 0 0 221 92.5a90.1 90.1 0 0 1-9.5-11.9 79.2 79.2 0 0 1-6.4-13.6 36.2 36.2 0 0 0 3.3-15.1A35.5 35.5 0 0 0 143 32.6a87 87 0 0 1-15 1.7 87 87 0 0 1-15-1.7 35.5 35.5 0 0 0-65.4 19.3A36.2 36.2 0 0 0 50.9 67a79.2 79.2 0 0 1-6.4 13.6A90.1 90.1 0 0 1 35 92.5a35.6 35.6 0 0 0-18.3 65.7 36 36 0 0 0 18.3 5.4 82.9 82.9 0 0 1 9.5 11.8 79.2 79.2 0 0 1 6.4 13.6 36.2 36.2 0 0 0-3.3 15.1 35.5 35.5 0 0 0 65.4 19.3 87 87 0 0 1 15-1.7 87 87 0 0 1 15 1.7 35.5 35.5 0 0 0 65.4-19.3 36.2 36.2 0 0 0-3.3-15.1 79.2 79.2 0 0 1 6.4-13.6 82.9 82.9 0 0 1 9.5-11.8 36 36 0 0 0 18.3-5.4 35.6 35.6 0 0 0 11.3-49zM46.9 135.1a13.3 13.3 0 1 1-4.3-18.4 13.4 13.4 0 0 1 4.3 18.4zm126-96.6a13.4 13.4 0 1 1-13.4 13.4 13.4 13.4 0 0 1 13.4-13.4zm-89.8 0a13.4 13.4 0 1 1-13.3 13.4 13.4 13.4 0 0 1 13.3-13.4zm0 179a13.4 13.4 0 1 1 13.4-13.4 13.4 13.4 0 0 1-13.4 13.4zm89.8 0a13.4 13.4 0 1 1 13.3-13.4 13.4 13.4 0 0 1-13.3 13.4zm8.9-60.7a81.6 81.6 0 0 1-9.5 11.8 35.7 35.7 0 0 0-29.3 16.2 78 78 0 0 1-15 1.8 78 78 0 0 1-15-1.8 35.7 35.7 0 0 0-29.3-16.2 81.6 81.6 0 0 1-9.5-11.8 83.7 83.7 0 0 1-6.4-13.7 36.2 36.2 0 0 0 0-30.2 83.7 83.7 0 0 1 6.4-13.7 81.6 81.6 0 0 1 9.5-11.8A35.7 35.7 0 0 0 113 71.2a78 78 0 0 1 15-1.8 78 78 0 0 1 15 1.8 35.7 35.7 0 0 0 29.3 16.2 81.6 81.6 0 0 1 9.5 11.8 83.7 83.7 0 0 1 6.4 13.7 36.2 36.2 0 0 0 0 30.2 83.7 83.7 0 0 1-6.4 13.7zm45.7-17.5a13.3 13.3 0 1 1 4.2-18.4 13.4 13.4 0 0 1-4.2 18.4z"/></symbol><symbol id="facebook-1" viewBox="0 0 256 256"><path fill="#d52d3e" d="M197.3 25H58.7A33.7 33.7 0 0 0 25 58.7v138.6A33.7 33.7 0 0 0 58.7 231h83.4v-79.6h-26.8v-32.5h26.8V91.7c1.8-35.9 36-36 36-36h28v29.2H186c-11.3 0-11.4 11.5-11.4 11.5v22.5h31l-4.3 32.5h-26.7V231h22.7a33.7 33.7 0 0 0 33.7-33.7V58.7A33.7 33.7 0 0 0 197.3 25z"/></symbol><symbol id="fidget-spinner-1" viewBox="0 0 256 256"><path fill="#fff" d="M226.9 145.4h-.2a32.9 32.9 0 0 0-20.4-3.7 37 37 0 0 1-15.8-1.3 39.6 39.6 0 0 1-6.4-2.7 29 29 0 0 1-4.1-2.7 35.6 35.6 0 0 1-14.2-28.4 32.8 32.8 0 0 1 .6-6.3 35.2 35.2 0 0 1 6.5-14.9 34.5 34.5 0 0 0 7.1-21c-.1-2.1-.2-4.2-.5-6.3a51.7 51.7 0 0 0-102.8 7.2v.8a31.9 31.9 0 0 0 6.7 19.1 35.4 35.4 0 0 1 6.4 14.4 40.4 40.4 0 0 1 .7 6.9 33.1 33.1 0 0 1-.5 5.5h-.1a35.6 35.6 0 0 1-18 25.6 39.6 39.6 0 0 1-6.4 2.7 37 37 0 0 1-15.8 1.3 32.9 32.9 0 0 0-20.4 3.7h-.2A51.7 51.7 0 0 0 72.2 239l5.8-2.6a34.5 34.5 0 0 0 14.9-16.2 35.5 35.5 0 0 1 9.9-12.9 41 41 0 0 1 5.3-3.6l1.4-.7a27.2 27.2 0 0 1 7.7-2.3h.2a83.6 83.6 0 0 1 21.2 0h.2a27.2 27.2 0 0 1 7.7 2.3l1.4.7a41 41 0 0 1 5.3 3.6 35.5 35.5 0 0 1 9.9 12.9 34.5 34.5 0 0 0 14.9 16.2l5.8 2.6a51.7 51.7 0 0 0 43.1-93.6zM61 203.5a14.6 14.6 0 1 1 5.8-19.8 14.7 14.7 0 0 1-5.8 19.8zm60.3-151a14.6 14.6 0 1 1-5.7 19.8 14.5 14.5 0 0 1 5.7-19.8zm7 136.4a37.5 37.5 0 1 1 37.5-37.5 37.4 37.4 0 0 1-37.5 37.5zm80.8 14.6a14.6 14.6 0 1 1 5.7-19.8 14.6 14.6 0 0 1-5.7 19.8z"/></symbol><symbol id="fidget-cube-1" viewBox="0 0 256 256"><circle cx="122.4" cy="143.6" r="21.7" fill="#fff"/><path fill="#fff" d="M168.7 73.8a21.7 21.7 0 1 0 21.6 21.7 21.7 21.7 0 0 0-21.6-21.7zm0 95a21.7 21.7 0 1 0 21.6 21.7 21.7 21.7 0 0 0-21.6-21.7zM76 73.8a21.7 21.7 0 1 0 21.7 21.7A21.7 21.7 0 0 0 76 73.8zm0 95a21.7 21.7 0 1 0 21.7 21.7A21.7 21.7 0 0 0 76 168.8z"/><path fill="#fff" d="M235.4 118.9V67.6a36.3 36.3 0 0 0-11-26.6 36.2 36.2 0 0 0-26.7-11H133V19.5c31.3-.4 39.8-2.6 39.8-2.6C172.8-.6 155.9 0 155.9 0H88.8S71.9-.6 71.9 16.9c0 0 8.5 2.2 39.8 2.6V30H9.3v226h188.4a37.6 37.6 0 0 0 37.7-37.7V167a31.2 31.2 0 0 0 0-48.1zm-25.5-7.1v106.5a12.3 12.3 0 0 1-12.2 12.3H47a12.3 12.3 0 0 1-12.2-12.3V67.6A12.3 12.3 0 0 1 47 55.4h150.7a12.3 12.3 0 0 1 12.2 12.2z"/></symbol><symbol id="instagram-1" viewBox="0 0 256 256"><path fill="#d52d3e" d="M161.5 64.4H94.8A30.8 30.8 0 0 0 64 95.2v66.6a30.8 30.8 0 0 0 30.8 30.8h66.7a30.8 30.8 0 0 0 30.8-30.8V95.2a30.8 30.8 0 0 0-30.8-30.8zm-33.3 104.3a40.1 40.1 0 1 1 40-40.1 40.1 40.1 0 0 1-40 40.1zm41.3-71.8a10 10 0 1 1 9.9-10 9.9 9.9 0 0 1-9.9 10z"/><path fill="#d52d3e" d="M197.3 25.5H58.7A33.7 33.7 0 0 0 25 59.2v138.6a33.7 33.7 0 0 0 33.7 33.7h138.6a33.7 33.7 0 0 0 33.7-33.7V59.2a33.7 33.7 0 0 0-33.7-33.7zm8.8 137a44 44 0 0 1-44.1 44.1H94a44 44 0 0 1-44.1-44.1v-68A44 44 0 0 1 94 50.4h68a44 44 0 0 1 44.1 44.1z"/><circle cx="128.2" cy="128.6" r="26.2" fill="#d52d3e" transform="rotate(-22.5 128.104 128.439)"/></symbol><symbol id="logo-16" viewBox="0 0 14.8 16"><circle cx="7.1" cy="9" r="1.4" fill="#d52d3e"/><path fill="#d52d3e" d="M10 4.6A1.4 1.4 0 0 0 8.6 6 1.3 1.3 0 0 0 10 7.3 1.3 1.3 0 0 0 11.3 6 1.3 1.3 0 0 0 10 4.6zm0 6a1.3 1.3 0 0 0-1.4 1.3 1.4 1.4 0 0 0 1.4 1.4 1.3 1.3 0 0 0 1.3-1.4 1.3 1.3 0 0 0-1.3-1.3zm-5.8-6A1.4 1.4 0 0 0 2.8 6a1.3 1.3 0 0 0 1.4 1.3A1.3 1.3 0 0 0 5.5 6a1.3 1.3 0 0 0-1.3-1.4zm0 6a1.3 1.3 0 0 0-1.4 1.3 1.4 1.4 0 0 0 1.4 1.4 1.3 1.3 0 0 0 1.3-1.4 1.3 1.3 0 0 0-1.3-1.3z"/><path fill="#404040" d="M14.1 7.4V4.2a2 2 0 0 0-.7-1.6 2 2 0 0 0-1.6-.7H7.7v-.7h2.5a1 1 0 0 0-1-1.2H5a1.1 1.1 0 0 0-1.1 1.1h2.5v.7H0V16h11.8a2 2 0 0 0 1.6-.7 2.1 2.1 0 0 0 .7-1.7v-3.2a1.7 1.7 0 0 0 .7-1.5 1.8 1.8 0 0 0-.7-1.5zM12.5 7v6.6c0 .3 0 .4-.2.6l-.5.2H2.4l-.6-.2a1.1 1.1 0 0 1-.2-.6V4.2a.8.8 0 0 1 .2-.5c.2-.2.3-.2.6-.2h9.4c.2 0 .4 0 .5.2s.2.3.2.5z"/></symbol><symbol id="logo-32" viewBox="0 0 29.7 32"><circle cx="14.1" cy="17.9" r="2.7" fill="#d52d3e"/><path fill="#d52d3e" d="M19.9 9.2a2.7 2.7 0 1 0 2.7 2.7 2.7 2.7 0 0 0-2.7-2.7zm0 11.9a2.7 2.7 0 1 0 2.7 2.7 2.7 2.7 0 0 0-2.7-2.7zM8.3 9.2a2.7 2.7 0 1 0 2.7 2.7 2.7 2.7 0 0 0-2.7-2.7zm0 11.9a2.7 2.7 0 1 0 2.7 2.7 2.7 2.7 0 0 0-2.7-2.7z"/><path fill="#404040" d="M28.3 14.9V8.5a4.6 4.6 0 0 0-1.4-3.4 4.6 4.6 0 0 0-3.4-1.4h-8V2.4a21.9 21.9 0 0 0 4.9-.3A2 2 0 0 0 18.3 0H9.9a2 2 0 0 0-2.1 2.1 23.7 23.7 0 0 0 5 .3v1.3H0V32h23.5a4.6 4.6 0 0 0 3.4-1.4 4.5 4.5 0 0 0 1.4-3.3v-6.4a3.9 3.9 0 0 0 0-6zm-3.2-.9v13.3a1.6 1.6 0 0 1-.5 1.1 1.4 1.4 0 0 1-1.1.4H4.7a1.5 1.5 0 0 1-1.1-.4 1.5 1.5 0 0 1-.4-1.1V8.5a1.4 1.4 0 0 1 .4-1.1 1.6 1.6 0 0 1 1.1-.5h18.8a1.4 1.4 0 0 1 1.1.5 1.4 1.4 0 0 1 .5 1.1z"/></symbol><symbol id="logo-256" viewBox="0 0 256 51.5"><path fill="#404040" d="M0 51.5h5.1V31.3h29.2v-5.1H5.1V11.1h36.4V6H0v45.5zM48.1 6h5.1v45.46h-5.1zm101.8 0h-30.3a7.5 7.5 0 0 0-7.5 7.6v30.3a7.5 7.5 0 0 0 7.5 7.6h30.3a7.7 7.7 0 0 0 5.4-2.2 7.3 7.3 0 0 0 2.2-5.4V27.5h-16.3v5.2h11.2v11.2a2.1 2.1 0 0 1-.7 1.7 2.5 2.5 0 0 1-1.8.8h-30.3a2.5 2.5 0 0 1-1.7-.8 2.1 2.1 0 0 1-.7-1.7V13.6a2.2 2.2 0 0 1 .7-1.7 2.5 2.5 0 0 1 1.7-.8h30.3a2.5 2.5 0 0 1 1.8.8 2.2 2.2 0 0 1 .7 1.7v1.8h5.1v-1.8a7.3 7.3 0 0 0-2.2-5.4 7.7 7.7 0 0 0-5.4-2.2zm13.3 45.5h41.4v-5.1h-36.3V31.3h29.2v-5.1h-29.2V11.1h36.3V6h-41.4v45.5zM210.5 6v5.1h20.2v40.4h5.2V11.1H256V6h-45.5z"/><circle cx="82.3" cy="28.9" r="4.4" fill="#d52d3e"/><path fill="#d52d3e" d="M91.6 14.8a4.4 4.4 0 1 0 0 8.8 4.4 4.4 0 0 0 0-8.8zm0 19.2a4.4 4.4 0 0 0-4.4 4.3 4.4 4.4 0 0 0 4.4 4.4 4.4 4.4 0 0 0 4.3-4.4 4.3 4.3 0 0 0-4.3-4.3zM72.9 14.8a4.4 4.4 0 1 0 4.4 4.4 4.4 4.4 0 0 0-4.4-4.4zm0 19.2a4.3 4.3 0 0 0-4.3 4.3 4.4 4.4 0 1 0 8.7 0 4.3 4.3 0 0 0-4.4-4.3z"/><path fill="#404040" d="M105 23.9V13.6a7.3 7.3 0 0 0-2.2-5.4A7.7 7.7 0 0 0 97.4 6h-13V3.9a47.8 47.8 0 0 0 8-.5A3.2 3.2 0 0 0 89 0H75.5a3.2 3.2 0 0 0-3.4 3.4 47.8 47.8 0 0 0 8 .5V6H59.5v45.5h37.9a7.7 7.7 0 0 0 5.4-2.2 7.3 7.3 0 0 0 2.2-5.4V33.6a6.3 6.3 0 0 0 0-9.7zm-5.1-1.4v21.4a2.8 2.8 0 0 1-2.5 2.5H67.1a2.3 2.3 0 0 1-1.7-.8 2.1 2.1 0 0 1-.8-1.7V13.6a2.3 2.3 0 0 1 .8-1.7 2.3 2.3 0 0 1 1.7-.8h30.3a2.1 2.1 0 0 1 1.7.8 2.3 2.3 0 0 1 .8 1.7z"/></symbol><symbol id="logo-64" viewBox="0 0 64 12.9"><path fill="#404040" d="M0 12.9h1.3V7.8h7.3V6.5H1.3V2.8h9.1V1.5H0v11.4zM12 1.5h1.3v11.36H12zm25.5 0h-7.6a1.6 1.6 0 0 0-1.3.6 1.6 1.6 0 0 0-.6 1.3V11a1.6 1.6 0 0 0 .6 1.3 1.6 1.6 0 0 0 1.3.6h7.6a1.6 1.6 0 0 0 1.3-.6 1.6 1.6 0 0 0 .6-1.3V6.9h-4.1v1.3h2.8V11a.8.8 0 0 1-.2.4.5.5 0 0 1-.4.2h-7.6l-.4-.2a.8.8 0 0 1-.2-.4V3.4a.5.5 0 0 1 .2-.4c.1-.2.2-.2.4-.2h7.6c.2 0 .3 0 .4.2a.5.5 0 0 1 .2.4v.5h1.3v-.5a1.6 1.6 0 0 0-.6-1.3 1.6 1.6 0 0 0-1.3-.6zm3.3 11.4h10.4v-1.3h-9.1V7.8h7.3V6.5h-7.3V2.8h9.1V1.5H40.8v11.4zM52.6 1.5v1.3h5.1v10.1H59V2.8h5V1.5H52.6z"/><circle cx="20.6" cy="7.2" r="1.1" fill="#d52d3e"/><path fill="#d52d3e" d="M22.9 3.7A1.1 1.1 0 1 0 24 4.8a1.1 1.1 0 0 0-1.1-1.1zm0 4.8A1.1 1.1 0 1 0 24 9.6a1.1 1.1 0 0 0-1.1-1.1zm-4.7-4.8a1.1 1.1 0 1 0 1.1 1.1 1.1 1.1 0 0 0-1.1-1.1zm0 4.8a1.1 1.1 0 1 0 1.1 1.1 1.1 1.1 0 0 0-1.1-1.1z"/><path fill="#404040" d="M26.2 6V3.4a1.5 1.5 0 0 0-.5-1.3 1.8 1.8 0 0 0-1.3-.6h-3.3V1h2a.8.8 0 0 0-.8-.9h-3.4a.9.9 0 0 0-.9.9h2v.5h-5.1v11.4h9.5a1.8 1.8 0 0 0 1.3-.6 1.5 1.5 0 0 0 .5-1.3V8.4a1.4 1.4 0 0 0 .6-1.2 1.4 1.4 0 0 0-.6-1.2zM25 5.6V11l-.2.4-.4.2h-7.6l-.5-.2a.6.6 0 0 1-.1-.4V3.4c0-.2 0-.3.1-.4a.6.6 0 0 1 .5-.2h7.6a.4.4 0 0 1 .4.2.5.5 0 0 1 .2.4z"/></symbol><symbol id="next-1" viewBox="0 0 256 256"><path fill="#fff" d="M228.4 121.3l-1.1-1.2-5.3-5-52-50.7a9.4 9.4 0 0 0-13.2 0 9 9 0 0 0-.1 12.8h.1l42.7 41.7H35.1a9.1 9.1 0 0 0-1.9 18.2h166.3l-42.7 41.7a9 9 0 0 0-.1 12.8h.1a9.4 9.4 0 0 0 13.2 0l52-50.8 5.3-5 1.1-1.1a9.9 9.9 0 0 0 2.6-6.7 9.7 9.7 0 0 0-2.6-6.7z"/></symbol><symbol id="submit-1" viewBox="0 0 256 256"><path fill="#fff" d="M228.5 57.4a8.9 8.9 0 0 0-12.6 0L93.4 179.9l-1 1-1-.9L40 128.6a8.8 8.8 0 0 0-12.4 0 8.6 8.6 0 0 0 0 12.4L85 198.4a10.6 10.6 0 0 0 14.7.3L228.5 70a9.3 9.3 0 0 0 0-12.6z"/></symbol><symbol id="toggle-nav-close-1" viewBox="0 0 256 256"><path fill="#404040" d="M227.4 209.7L145.6 128l81.5-81.5a12.6 12.6 0 0 0 1.6-16.3 12.4 12.4 0 0 0-18.9-1.6L128 110.4 46.3 28.6a12.6 12.6 0 0 0-17.6 0 12.5 12.5 0 0 0 0 17.7l81.7 81.7-81.5 81.5a12.8 12.8 0 0 0-1.6 16.3 12.5 12.5 0 0 0 19 1.6l81.7-81.8 81.8 81.8a12.6 12.6 0 0 0 17.6 0 12.7 12.7 0 0 0 0-17.7z"/></symbol><symbol id="twitter-1" viewBox="0 0 256 256"><path fill="#d52d3e" d="M197.3 25H58.7A33.7 33.7 0 0 0 25 58.7v138.6A33.7 33.7 0 0 0 58.7 231h138.6a33.7 33.7 0 0 0 33.7-33.7V58.7A33.7 33.7 0 0 0 197.3 25zm-5.6 69.4s5 56.9-48.4 85.9-93.3-2.7-93.3-2.7 31.5 2.9 48-13.6c0 0-23.6-.3-29.4-23.6l17 .8S57 135.4 57 109.1a39 39 0 0 0 13.9 3.1s-23.2-15.1-9.7-42.6c0 0 27.5 36.4 65.1 34.1 0 0-4.7-22.9 15.4-34.9s40.3 4.7 40.3 4.7a114.3 114.3 0 0 0 20.5-7.4s-3.5 13.2-11.6 16.3c0 0 6.6 1.9 15.1-3.1a31.8 31.8 0 0 1-14.3 15.1z"/></symbol><symbol id="search-1" viewBox="0 0 256 256"><path fill="#404040" d="M227.4 209.7l-60.5-60.4a78.3 78.3 0 1 0-17.3 17.5l60.4 60.3a12.3 12.3 0 0 0 17.4-17.4zm-124-49a57.1 57.1 0 1 1 57-57.1 57.1 57.1 0 0 1-57 57.1z"/></symbol><symbol id="shopping-cart-1" viewBox="0 0 256 256"><path fill="#404040" d="M222 51h-29.6l-6.1 18.1-2.6 7.4H34a9 9 0 0 0-8.5 11.9l24.8 73.1a8.9 8.9 0 0 0 8.5 6.2h106.7a9 9 0 0 0 8.6-6.2l28.8-85 2.5-7.4H222a9.1 9.1 0 1 0 0-18.1zm-63.2 99.9H65.4l-18-57.6H177z"/><circle cx="168.9" cy="190" r="15" fill="#404040" transform="rotate(-67.5 168.861 190.004)"/><circle cx="55.5" cy="190" r="15" fill="#404040"/></symbol><symbol id="toggle-nav-hamburger-1" viewBox="0 0 256 256"><path fill="#404040" d="M34.2 82.3h187.7a9.1 9.1 0 0 0 0-18.2H34.2a9.1 9.1 0 1 0 0 18.2z"/><rect width="206" height="18.27" x="25" y="118.9" fill="#404040" rx="9.1" ry="9.1"/><path fill="#404040" d="M221.9 173.7H34.2a9.1 9.1 0 1 0 0 18.2h187.7a9.1 9.1 0 0 0 0-18.2z"/></symbol></svg>