<svg xmlns="http://www.w3.org/2000/svg"><symbol id="facebook-1" viewBox="0 0 256 256"><path fill="#404040" d="M197.3 25H58.7A33.7 33.7 0 0 0 25 58.7v138.6A33.7 33.7 0 0 0 58.7 231h83.4v-79.6h-26.8v-32.5h26.8V91.7c1.8-35.9 36-36 36-36h28v29.2H186c-11.3 0-11.4 11.5-11.4 11.5v22.5h31l-4.3 32.5h-26.7V231h22.7a33.7 33.7 0 0 0 33.7-33.7V58.7A33.7 33.7 0 0 0 197.3 25z"/></symbol><symbol id="cancel-1" viewBox="0 0 256 256"><path fill="#fff" d="M227 209.4L145.5 128l81.2-81.2a12.4 12.4 0 1 0-16.4-18.7l-1 .9-81.3 81.5L46.6 29A12.4 12.4 0 1 0 29 46.6l81.4 81.4-81.1 81.2a12.4 12.4 0 1 0 16.3 18.7l1-.9 81.4-81.5 81.3 81.5a12.5 12.5 0 0 0 17.7-17.6z"/></symbol><symbol id="fidget-chain-1" viewBox="0 0 256 256"><path fill="#fff" d="M250.6 109.2A35.5 35.5 0 0 0 221 92.5a90.1 90.1 0 0 1-9.5-11.9 79.2 79.2 0 0 1-6.4-13.6 36.2 36.2 0 0 0 3.3-15.1A35.5 35.5 0 0 0 143 32.6a87 87 0 0 1-15 1.7 87 87 0 0 1-15-1.7 35.5 35.5 0 0 0-65.4 19.3A36.2 36.2 0 0 0 50.9 67a79.2 79.2 0 0 1-6.4 13.6A90.1 90.1 0 0 1 35 92.5a35.6 35.6 0 0 0-18.3 65.7 36 36 0 0 0 18.3 5.4 82.9 82.9 0 0 1 9.5 11.8 79.2 79.2 0 0 1 6.4 13.6 36.2 36.2 0 0 0-3.3 15.1 35.5 35.5 0 0 0 65.4 19.3 87 87 0 0 1 15-1.7 87 87 0 0 1 15 1.7 35.5 35.5 0 0 0 65.4-19.3 36.2 36.2 0 0 0-3.3-15.1 79.2 79.2 0 0 1 6.4-13.6 82.9 82.9 0 0 1 9.5-11.8 36 36 0 0 0 18.3-5.4 35.6 35.6 0 0 0 11.3-49zM46.9 135.1a13.3 13.3 0 1 1-4.3-18.4 13.4 13.4 0 0 1 4.3 18.4zm126-96.6a13.4 13.4 0 1 1-13.4 13.4 13.4 13.4 0 0 1 13.4-13.4zm-89.8 0a13.4 13.4 0 1 1-13.3 13.4 13.4 13.4 0 0 1 13.3-13.4zm0 179a13.4 13.4 0 1 1 13.4-13.4 13.4 13.4 0 0 1-13.4 13.4zm89.8 0a13.4 13.4 0 1 1 13.3-13.4 13.4 13.4 0 0 1-13.3 13.4zm8.9-60.7a81.6 81.6 0 0 1-9.5 11.8 35.7 35.7 0 0 0-29.3 16.2 78 78 0 0 1-15 1.8 78 78 0 0 1-15-1.8 35.7 35.7 0 0 0-29.3-16.2 81.6 81.6 0 0 1-9.5-11.8 83.7 83.7 0 0 1-6.4-13.7 36.2 36.2 0 0 0 0-30.2 83.7 83.7 0 0 1 6.4-13.7 81.6 81.6 0 0 1 9.5-11.8A35.7 35.7 0 0 0 113 71.2a78 78 0 0 1 15-1.8 78 78 0 0 1 15 1.8 35.7 35.7 0 0 0 29.3 16.2 81.6 81.6 0 0 1 9.5 11.8 83.7 83.7 0 0 1 6.4 13.7 36.2 36.2 0 0 0 0 30.2 83.7 83.7 0 0 1-6.4 13.7zm45.7-17.5a13.3 13.3 0 1 1 4.2-18.4 13.4 13.4 0 0 1-4.2 18.4z"/></symbol><symbol id="fidget-cube-1" viewBox="0 0 256 256"><circle cx="122.4" cy="143.6" r="21.7" fill="#fff"/><path fill="#fff" d="M168.7 73.8a21.7 21.7 0 1 0 21.6 21.7 21.7 21.7 0 0 0-21.6-21.7zm0 95a21.7 21.7 0 1 0 21.6 21.7 21.7 21.7 0 0 0-21.6-21.7zM76 73.8a21.7 21.7 0 1 0 21.7 21.7A21.7 21.7 0 0 0 76 73.8zm0 95a21.7 21.7 0 1 0 21.7 21.7A21.7 21.7 0 0 0 76 168.8z"/><path fill="#fff" d="M235.4 118.9V67.6a36.3 36.3 0 0 0-11-26.6 36.2 36.2 0 0 0-26.7-11H133V19.5c31.3-.4 39.8-2.6 39.8-2.6C172.8-.6 155.9 0 155.9 0H88.8S71.9-.6 71.9 16.9c0 0 8.5 2.2 39.8 2.6V30H9.3v226h188.4a37.6 37.6 0 0 0 37.7-37.7V167a31.2 31.2 0 0 0 0-48.1zm-25.5-7.1v106.5a12.3 12.3 0 0 1-12.2 12.3H47a12.3 12.3 0 0 1-12.2-12.3V67.6A12.3 12.3 0 0 1 47 55.4h150.7a12.3 12.3 0 0 1 12.2 12.2z"/></symbol><symbol id="fidget-spinner-1" viewBox="0 0 256 256"><path fill="#fff" d="M228.7 145.8h-.1a33.8 33.8 0 0 0-20.9-3.8 35.4 35.4 0 0 1-16.1-1.3 36.4 36.4 0 0 1-6.5-2.8l-4.2-2.7a36.3 36.3 0 0 1-14.4-28.9 34.9 34.9 0 0 1 .6-6.5 36.7 36.7 0 0 1 6.6-15.1 35.1 35.1 0 0 0 7.2-21.3 47.2 47.2 0 0 0-.5-6.4 52.6 52.6 0 0 0-104.6 7.1v.9a32.5 32.5 0 0 0 6.7 19.4 36.4 36.4 0 0 1 6.6 14.7 40.5 40.5 0 0 1 .7 7 34.3 34.3 0 0 1-.5 5.6h-.1a35.7 35.7 0 0 1-18.3 26 36.4 36.4 0 0 1-6.5 2.8 35.4 35.4 0 0 1-16.1 1.3 33.8 33.8 0 0 0-20.9 3.8h-.1A52.5 52.5 0 0 0 71.2 241a62.1 62.1 0 0 0 5.9-2.6 34.6 34.6 0 0 0 15.1-16.5 36.7 36.7 0 0 1 10.1-13.1 35.3 35.3 0 0 1 5.5-3.7l1.4-.7a26.9 26.9 0 0 1 7.8-2.3h.2a78.1 78.1 0 0 1 21.6 0h.2a26.9 26.9 0 0 1 7.8 2.3l1.4.7a35.3 35.3 0 0 1 5.5 3.7 36.7 36.7 0 0 1 10.1 13.1 34.6 34.6 0 0 0 15.1 16.5 62.1 62.1 0 0 0 5.9 2.6 52.5 52.5 0 0 0 43.9-95.2zm-169 59.1a14.9 14.9 0 1 1 5.9-20.2 14.9 14.9 0 0 1-5.9 20.2zm61.5-153.8a14.9 14.9 0 1 1-5.9 20.2 14.9 14.9 0 0 1 5.9-20.2zm7.2 138.9a38.2 38.2 0 1 1 38.1-38.2 38.2 38.2 0 0 1-38.1 38.2zm82.2 14.9a14.9 14.9 0 1 1 5.9-20.2 14.9 14.9 0 0 1-5.9 20.2z"/></symbol><symbol id="instagram-1" viewBox="0 0 256 256"><path fill="#404040" d="M161.5 64.4H94.8A30.8 30.8 0 0 0 64 95.2v66.6a30.8 30.8 0 0 0 30.8 30.8h66.7a30.8 30.8 0 0 0 30.8-30.8V95.2a30.8 30.8 0 0 0-30.8-30.8zm-33.3 104.3a40.1 40.1 0 1 1 40-40.1 40.1 40.1 0 0 1-40 40.1zm41.3-71.8a10 10 0 1 1 9.9-10 9.9 9.9 0 0 1-9.9 10z"/><path fill="#404040" d="M197.3 25.5H58.7A33.7 33.7 0 0 0 25 59.2v138.6a33.7 33.7 0 0 0 33.7 33.7h138.6a33.7 33.7 0 0 0 33.7-33.7V59.2a33.7 33.7 0 0 0-33.7-33.7zm8.8 137a44 44 0 0 1-44.1 44.1H94a44 44 0 0 1-44.1-44.1v-68A44 44 0 0 1 94 50.4h68a44 44 0 0 1 44.1 44.1z"/><circle cx="128.2" cy="128.6" r="26.2" fill="#404040" transform="rotate(-22.5 128.104 128.439)"/></symbol><symbol id="next-1" viewBox="0 0 256 256"><path fill="#fff" d="M228.4 121.3l-1.1-1.2-5.3-5-52-50.7a9.4 9.4 0 0 0-13.2 0 9 9 0 0 0-.1 12.8h.1l42.7 41.7H35.1a9.1 9.1 0 0 0-1.9 18.2h166.3l-42.7 41.7a9 9 0 0 0-.1 12.8h.1a9.4 9.4 0 0 0 13.2 0l52-50.8 5.3-5 1.1-1.1a9.9 9.9 0 0 0 2.6-6.7 9.7 9.7 0 0 0-2.6-6.7z"/></symbol><symbol id="search-1" viewBox="0 0 256 256"><path fill="#404040" d="M227.4 209.7l-60.5-60.4a78.3 78.3 0 1 0-17.3 17.5l60.4 60.3a12.3 12.3 0 0 0 17.4-17.4zm-124-49a57.1 57.1 0 1 1 57-57.1 57.1 57.1 0 0 1-57 57.1z"/></symbol><symbol id="shopping-cart-1" viewBox="0 0 256 256"><path fill="#404040" d="M222 51h-29.6l-6.1 18.1-2.6 7.4H34a9 9 0 0 0-8.5 11.9l24.8 73.1a8.9 8.9 0 0 0 8.5 6.2h106.7a9 9 0 0 0 8.6-6.2l28.8-85 2.5-7.4H222a9.1 9.1 0 1 0 0-18.1zm-63.2 99.9H65.4l-18-57.6H177z"/><circle cx="168.9" cy="190" r="15" fill="#404040" transform="rotate(-67.5 168.861 190.004)"/><circle cx="55.5" cy="190" r="15" fill="#404040"/></symbol><symbol id="submit-1" viewBox="0 0 256 256"><path fill="#fff" d="M228.5 57.4a8.9 8.9 0 0 0-12.6 0L93.4 179.9l-1 1-1-.9L40 128.6a8.8 8.8 0 0 0-12.4 0 8.6 8.6 0 0 0 0 12.4L85 198.4a10.6 10.6 0 0 0 14.7.3L228.5 70a9.3 9.3 0 0 0 0-12.6z"/></symbol><symbol id="toggle-nav-close-1" viewBox="0 0 256 256"><path fill="#404040" d="M227.4 209.7L145.6 128l81.5-81.5a12.6 12.6 0 0 0 1.6-16.3 12.4 12.4 0 0 0-18.9-1.6L128 110.4 46.3 28.6a12.6 12.6 0 0 0-17.6 0 12.5 12.5 0 0 0 0 17.7l81.7 81.7-81.5 81.5a12.8 12.8 0 0 0-1.6 16.3 12.5 12.5 0 0 0 19 1.6l81.7-81.8 81.8 81.8a12.6 12.6 0 0 0 17.6 0 12.7 12.7 0 0 0 0-17.7z"/></symbol><symbol id="toggle-nav-hamburger-1" viewBox="0 0 256 256"><path fill="#404040" d="M34.2 82.3h187.7a9.1 9.1 0 0 0 0-18.2H34.2a9.1 9.1 0 1 0 0 18.2z"/><rect width="206" height="18.27" x="25" y="118.9" fill="#404040" rx="9.1" ry="9.1"/><path fill="#404040" d="M221.9 173.7H34.2a9.1 9.1 0 1 0 0 18.2h187.7a9.1 9.1 0 0 0 0-18.2z"/></symbol><symbol id="twitter-1" viewBox="0 0 256 256"><path fill="#404040" d="M197.3 25H58.7A33.7 33.7 0 0 0 25 58.7v138.6A33.7 33.7 0 0 0 58.7 231h138.6a33.7 33.7 0 0 0 33.7-33.7V58.7A33.7 33.7 0 0 0 197.3 25zm-5.6 69.4s5 56.9-48.4 85.9-93.3-2.7-93.3-2.7 31.5 2.9 48-13.6c0 0-23.6-.3-29.4-23.6l17 .8S57 135.4 57 109.1a39 39 0 0 0 13.9 3.1s-23.2-15.1-9.7-42.6c0 0 27.5 36.4 65.1 34.1 0 0-4.7-22.9 15.4-34.9s40.3 4.7 40.3 4.7a114.3 114.3 0 0 0 20.5-7.4s-3.5 13.2-11.6 16.3c0 0 6.6 1.9 15.1-3.1a31.8 31.8 0 0 1-14.3 15.1z"/></symbol></svg>