<svg xmlns="http://www.w3.org/2000/svg"><symbol id="instagram-1" viewBox="0 0 256 256"><path d="M161.5 64.4H94.8A30.8 30.8 0 0 0 64 95.2v66.6a30.8 30.8 0 0 0 30.8 30.8h66.7a30.8 30.8 0 0 0 30.8-30.8V95.2a30.8 30.8 0 0 0-30.8-30.8zm-33.3 104.3a40.1 40.1 0 1 1 40-40.1 40.1 40.1 0 0 1-40 40.1zm41.3-71.8a10 10 0 1 1 9.9-10 9.9 9.9 0 0 1-9.9 10z"/><path d="M197.3 25.5H58.7A33.7 33.7 0 0 0 25 59.2v138.6a33.7 33.7 0 0 0 33.7 33.7h138.6a33.7 33.7 0 0 0 33.7-33.7V59.2a33.7 33.7 0 0 0-33.7-33.7zm8.8 137a44 44 0 0 1-44.1 44.1H94a44 44 0 0 1-44.1-44.1v-68A44 44 0 0 1 94 50.4h68a44 44 0 0 1 44.1 44.1z"/><circle cx="128.2" cy="128.6" r="26.2" transform="rotate(-22.5 128.104 128.439)"/></symbol><symbol id="facebook-1" viewBox="0 0 256 256"><path fill="#00071e" d="M197.3 25H58.7A33.7 33.7 0 0 0 25 58.7v138.6A33.7 33.7 0 0 0 58.7 231h83.4v-79.6h-26.8v-32.5h26.8V91.7c1.8-35.9 36-36 36-36h28v29.2H186c-11.3 0-11.4 11.5-11.4 11.5v22.5h31l-4.3 32.5h-26.7V231h22.7a33.7 33.7 0 0 0 33.7-33.7V58.7A33.7 33.7 0 0 0 197.3 25z"/></symbol><symbol id="shopping-cart-1" viewBox="0 0 256 256"><path d="M222 51h-29.6l-6.2 18.1-2.5 7.4H34a9.1 9.1 0 0 0-8.6 11.9l24.8 73.1a9.1 9.1 0 0 0 8.6 6.2h106.7a9.1 9.1 0 0 0 8.6-6.2l28.8-85h-.1l2.5-7.4H222a9.1 9.1 0 0 0 0-18.1zm-63.2 99.9H65.4l-18-57.6H177z"/><circle cx="168.9" cy="190" r="15" transform="rotate(-67.5 168.861 190.004)"/><circle cx="55.4" cy="190" r="15"/></symbol><symbol id="search-1" viewBox="0 0 256 256"><path d="M227.4 209.7l-60.5-60.4a78.3 78.3 0 1 0-17.3 17.5l60.4 60.3a12.3 12.3 0 0 0 17.4-17.4zm-124-49a57.1 57.1 0 1 1 57-57.1 57.1 57.1 0 0 1-57 57.1z"/></symbol><symbol id="toggle-nav-close-1" viewBox="0 0 256 256"><path d="M227.4 209.7L145.6 128l81.5-81.5a12.5 12.5 0 1 0-17.4-17.9L128 110.4 46.3 28.6a12.7 12.7 0 0 0-17.7 0 12.7 12.7 0 0 0 0 17.7l81.8 81.7-81.5 81.5a12.5 12.5 0 1 0 17.4 17.9l81.7-81.8 81.7 81.8a12.7 12.7 0 0 0 17.7 0 12.7 12.7 0 0 0 0-17.7z"/></symbol><symbol id="toggle-nav-hamburger-1" viewBox="0 0 256 256"><path d="M34.1 82.3h187.8a9.1 9.1 0 0 0 0-18.2H34.1a9.1 9.1 0 0 0 0 18.2z"/><rect width="206" height="18.27" x="25" y="118.9" rx="9.1" ry="9.1"/><path d="M221.9 173.7H34.1a9.1 9.1 0 1 0 0 18.2h187.8a9.1 9.1 0 0 0 0-18.2z"/></symbol><symbol id="twitter-1" viewBox="0 0 256 256"><path d="M197.3 25H58.7A33.7 33.7 0 0 0 25 58.7v138.6A33.7 33.7 0 0 0 58.7 231h138.6a33.7 33.7 0 0 0 33.7-33.7V58.7A33.7 33.7 0 0 0 197.3 25zm-5.6 69.4s5 56.9-48.4 85.9-93.3-2.7-93.3-2.7 31.5 2.9 48-13.6c0 0-23.6-.3-29.4-23.6l17 .8S57 135.4 57 109.1a39 39 0 0 0 13.9 3.1s-23.2-15.1-9.7-42.6c0 0 27.5 36.4 65.1 34.1 0 0-4.7-22.9 15.4-34.9s40.3 4.7 40.3 4.7a114.3 114.3 0 0 0 20.5-7.4s-3.5 13.2-11.6 16.3c0 0 6.6 1.9 15.1-3.1a31.8 31.8 0 0 1-14.3 15.1z"/></symbol></svg>