<svg xmlns="http://www.w3.org/2000/svg" width="256" height="256" viewBox="0 0 256 256"><path fill="#d52d3e" d="M161.5 64.4H94.8A30.8 30.8 0 0 0 64 95.2v66.6a30.8 30.8 0 0 0 30.8 30.8h66.7a30.8 30.8 0 0 0 30.8-30.8V95.2a30.8 30.8 0 0 0-30.8-30.8zm-33.3 104.3a40.1 40.1 0 1 1 40-40.1 40.1 40.1 0 0 1-40 40.1zm41.3-71.8a10 10 0 1 1 9.9-10 9.9 9.9 0 0 1-9.9 10z"/><path fill="#d52d3e" d="M197.3 25.5H58.7A33.7 33.7 0 0 0 25 59.2v138.6a33.7 33.7 0 0 0 33.7 33.7h138.6a33.7 33.7 0 0 0 33.7-33.7V59.2a33.7 33.7 0 0 0-33.7-33.7zm8.8 137a44 44 0 0 1-44.1 44.1H94a44 44 0 0 1-44.1-44.1v-68A44 44 0 0 1 94 50.4h68a44 44 0 0 1 44.1 44.1z"/><circle cx="128.2" cy="128.6" r="26.2" fill="#d52d3e" transform="rotate(-22.5 128.104 128.439)"/></svg>