<svg xmlns="http://www.w3.org/2000/svg" width="64" height="12.9" viewBox="0 0 64 12.9"><path fill="#404040" d="M0 12.9h1.3V7.8h7.3V6.5H1.3V2.8h9.1V1.5H0v11.4zM12 1.5h1.3v11.36H12zm25.5 0h-7.6a1.6 1.6 0 0 0-1.3.6 1.6 1.6 0 0 0-.6 1.3V11a1.6 1.6 0 0 0 .6 1.3 1.6 1.6 0 0 0 1.3.6h7.6a1.6 1.6 0 0 0 1.3-.6 1.6 1.6 0 0 0 .6-1.3V6.9h-4.1v1.3h2.8V11a.8.8 0 0 1-.2.4.5.5 0 0 1-.4.2h-7.6l-.4-.2a.8.8 0 0 1-.2-.4V3.4a.5.5 0 0 1 .2-.4c.1-.2.2-.2.4-.2h7.6c.2 0 .3 0 .4.2a.5.5 0 0 1 .2.4v.5h1.3v-.5a1.6 1.6 0 0 0-.6-1.3 1.6 1.6 0 0 0-1.3-.6zm3.3 11.4h10.4v-1.3h-9.1V7.8h7.3V6.5h-7.3V2.8h9.1V1.5H40.8v11.4zM52.6 1.5v1.3h5.1v10.1H59V2.8h5V1.5H52.6z"/><circle cx="20.6" cy="7.2" r="1.1" fill="#d52d3e"/><path fill="#d52d3e" d="M22.9 3.7A1.1 1.1 0 1 0 24 4.8a1.1 1.1 0 0 0-1.1-1.1zm0 4.8A1.1 1.1 0 1 0 24 9.6a1.1 1.1 0 0 0-1.1-1.1zm-4.7-4.8a1.1 1.1 0 1 0 1.1 1.1 1.1 1.1 0 0 0-1.1-1.1zm0 4.8a1.1 1.1 0 1 0 1.1 1.1 1.1 1.1 0 0 0-1.1-1.1z"/><path fill="#404040" d="M26.2 6V3.4a1.5 1.5 0 0 0-.5-1.3 1.8 1.8 0 0 0-1.3-.6h-3.3V1h2a.8.8 0 0 0-.8-.9h-3.4a.9.9 0 0 0-.9.9h2v.5h-5.1v11.4h9.5a1.8 1.8 0 0 0 1.3-.6 1.5 1.5 0 0 0 .5-1.3V8.4a1.4 1.4 0 0 0 .6-1.2 1.4 1.4 0 0 0-.6-1.2zM25 5.6V11l-.2.4-.4.2h-7.6l-.5-.2a.6.6 0 0 1-.1-.4V3.4c0-.2 0-.3.1-.4a.6.6 0 0 1 .5-.2h7.6a.4.4 0 0 1 .4.2.5.5 0 0 1 .2.4z"/></svg>