<svg id="Layer_1" data-name="Layer 1" xmlns="http://www.w3.org/2000/svg" width="256" height="51.5" viewBox="0 0 256 51.5"><title>logo-256</title><polygon points="0 51.5 5.1 51.5 5.1 31.3 34.3 31.3 34.3 26.2 5.1 26.2 5.1 11.1 41.5 11.1 41.5 6 0 6 0 51.5" fill="#404040"/><rect x="48.1" y="6" width="5.1" height="45.46" fill="#404040"/><path d="M149.9,6H119.6a7.5,7.5,0,0,0-7.5,7.6V43.9a7.5,7.5,0,0,0,7.5,7.6h30.3a7.7,7.7,0,0,0,5.4-2.2,7.3,7.3,0,0,0,2.2-5.4V27.5H141.2v5.2h11.2V43.9a2.1,2.1,0,0,1-.7,1.7,2.5,2.5,0,0,1-1.8.8H119.6a2.5,2.5,0,0,1-1.7-.8,2.1,2.1,0,0,1-.7-1.7V13.6a2.2,2.2,0,0,1,.7-1.7,2.5,2.5,0,0,1,1.7-.8h30.3a2.5,2.5,0,0,1,1.8.8,2.2,2.2,0,0,1,.7,1.7v1.8h5.1V13.6a7.3,7.3,0,0,0-2.2-5.4A7.7,7.7,0,0,0,149.9,6Z" fill="#404040"/><polygon points="163.2 51.5 204.6 51.5 204.6 46.4 168.3 46.4 168.3 31.3 197.5 31.3 197.5 26.2 168.3 26.2 168.3 11.1 204.6 11.1 204.6 6 163.2 6 163.2 51.5" fill="#404040"/><polygon points="210.5 6 210.5 11.1 230.7 11.1 230.7 51.5 235.9 51.5 235.9 11.1 256 11.1 256 6 210.5 6" fill="#404040"/><circle cx="82.3" cy="28.9" r="4.4" fill="#d52d3e"/><path d="M91.6,14.8a4.4,4.4,0,1,0,0,8.8,4.4,4.4,0,0,0,0-8.8Z" fill="#d52d3e"/><path d="M91.6,34a4.4,4.4,0,0,0-4.4,4.3,4.4,4.4,0,0,0,4.4,4.4,4.4,4.4,0,0,0,4.3-4.4A4.3,4.3,0,0,0,91.6,34Z" fill="#d52d3e"/><path d="M72.9,14.8a4.4,4.4,0,1,0,4.4,4.4A4.4,4.4,0,0,0,72.9,14.8Z" fill="#d52d3e"/><path d="M72.9,34a4.3,4.3,0,0,0-4.3,4.3,4.4,4.4,0,1,0,8.7,0A4.3,4.3,0,0,0,72.9,34Z" fill="#d52d3e"/><path d="M105,23.9V13.6a7.3,7.3,0,0,0-2.2-5.4A7.7,7.7,0,0,0,97.4,6h-13V3.9a47.8,47.8,0,0,0,8-.5A3.2,3.2,0,0,0,89,0H75.5a3.2,3.2,0,0,0-3.4,3.4,47.8,47.8,0,0,0,8,.5V6H59.5V51.5H97.4a7.7,7.7,0,0,0,5.4-2.2,7.3,7.3,0,0,0,2.2-5.4V33.6a6.3,6.3,0,0,0,0-9.7Zm-5.1-1.4V43.9a2.8,2.8,0,0,1-2.5,2.5H67.1a2.3,2.3,0,0,1-1.7-.8,2.1,2.1,0,0,1-.8-1.7V13.6a2.3,2.3,0,0,1,.8-1.7,2.3,2.3,0,0,1,1.7-.8H97.4a2.1,2.1,0,0,1,1.7.8,2.3,2.3,0,0,1,.8,1.7Z" fill="#404040"/></svg>