<svg xmlns="http://www.w3.org/2000/svg" width="256" height="51.5" viewBox="0 0 256 51.5"><path fill="#404040" d="M0 51.5h5.1V31.3h29.2v-5.1H5.1V11.1h36.4V6H0v45.5zM48.1 6h5.1v45.46h-5.1zm101.8 0h-30.3a7.5 7.5 0 0 0-7.5 7.6v30.3a7.5 7.5 0 0 0 7.5 7.6h30.3a7.7 7.7 0 0 0 5.4-2.2 7.3 7.3 0 0 0 2.2-5.4V27.5h-16.3v5.2h11.2v11.2a2.1 2.1 0 0 1-.7 1.7 2.5 2.5 0 0 1-1.8.8h-30.3a2.5 2.5 0 0 1-1.7-.8 2.1 2.1 0 0 1-.7-1.7V13.6a2.2 2.2 0 0 1 .7-1.7 2.5 2.5 0 0 1 1.7-.8h30.3a2.5 2.5 0 0 1 1.8.8 2.2 2.2 0 0 1 .7 1.7v1.8h5.1v-1.8a7.3 7.3 0 0 0-2.2-5.4 7.7 7.7 0 0 0-5.4-2.2zm13.3 45.5h41.4v-5.1h-36.3V31.3h29.2v-5.1h-29.2V11.1h36.3V6h-41.4v45.5zM210.5 6v5.1h20.2v40.4h5.2V11.1H256V6h-45.5z"/><circle cx="82.3" cy="28.9" r="4.4" fill="#d52d3e"/><path fill="#d52d3e" d="M91.6 14.8a4.4 4.4 0 1 0 0 8.8 4.4 4.4 0 0 0 0-8.8zm0 19.2a4.4 4.4 0 0 0-4.4 4.3 4.4 4.4 0 0 0 4.4 4.4 4.4 4.4 0 0 0 4.3-4.4 4.3 4.3 0 0 0-4.3-4.3zM72.9 14.8a4.4 4.4 0 1 0 4.4 4.4 4.4 4.4 0 0 0-4.4-4.4zm0 19.2a4.3 4.3 0 0 0-4.3 4.3 4.4 4.4 0 1 0 8.7 0 4.3 4.3 0 0 0-4.4-4.3z"/><path fill="#404040" d="M105 23.9V13.6a7.3 7.3 0 0 0-2.2-5.4A7.7 7.7 0 0 0 97.4 6h-13V3.9a47.8 47.8 0 0 0 8-.5A3.2 3.2 0 0 0 89 0H75.5a3.2 3.2 0 0 0-3.4 3.4 47.8 47.8 0 0 0 8 .5V6H59.5v45.5h37.9a7.7 7.7 0 0 0 5.4-2.2 7.3 7.3 0 0 0 2.2-5.4V33.6a6.3 6.3 0 0 0 0-9.7zm-5.1-1.4v21.4a2.8 2.8 0 0 1-2.5 2.5H67.1a2.3 2.3 0 0 1-1.7-.8 2.1 2.1 0 0 1-.8-1.7V13.6a2.3 2.3 0 0 1 .8-1.7 2.3 2.3 0 0 1 1.7-.8h30.3a2.1 2.1 0 0 1 1.7.8 2.3 2.3 0 0 1 .8 1.7z"/></svg>