<svg xmlns="http://www.w3.org/2000/svg" width="14.8" height="16" viewBox="0 0 14.8 16"><circle cx="7.1" cy="9" r="1.4" fill="#d52d3e"/><path fill="#d52d3e" d="M10 4.6A1.4 1.4 0 0 0 8.6 6 1.3 1.3 0 0 0 10 7.3 1.3 1.3 0 0 0 11.3 6 1.3 1.3 0 0 0 10 4.6zm0 6a1.3 1.3 0 0 0-1.4 1.3 1.4 1.4 0 0 0 1.4 1.4 1.3 1.3 0 0 0 1.3-1.4 1.3 1.3 0 0 0-1.3-1.3zm-5.8-6A1.4 1.4 0 0 0 2.8 6a1.3 1.3 0 0 0 1.4 1.3A1.3 1.3 0 0 0 5.5 6a1.3 1.3 0 0 0-1.3-1.4zm0 6a1.3 1.3 0 0 0-1.4 1.3 1.4 1.4 0 0 0 1.4 1.4 1.3 1.3 0 0 0 1.3-1.4 1.3 1.3 0 0 0-1.3-1.3z"/><path fill="#404040" d="M14.1 7.4V4.2a2 2 0 0 0-.7-1.6 2 2 0 0 0-1.6-.7H7.7v-.7h2.5a1 1 0 0 0-1-1.2H5a1.1 1.1 0 0 0-1.1 1.1h2.5v.7H0V16h11.8a2 2 0 0 0 1.6-.7 2.1 2.1 0 0 0 .7-1.7v-3.2a1.7 1.7 0 0 0 .7-1.5 1.8 1.8 0 0 0-.7-1.5zM12.5 7v6.6c0 .3 0 .4-.2.6l-.5.2H2.4l-.6-.2a1.1 1.1 0 0 1-.2-.6V4.2a.8.8 0 0 1 .2-.5c.2-.2.3-.2.6-.2h9.4c.2 0 .4 0 .5.2s.2.3.2.5z"/></svg>