<svg id="Layer_1" data-name="Layer 1" xmlns="http://www.w3.org/2000/svg" width="64" height="12.9" viewBox="0 0 64 12.9"><title>logo-64</title><polygon points="0 12.9 1.3 12.9 1.3 7.8 8.6 7.8 8.6 6.5 1.3 6.5 1.3 2.8 10.4 2.8 10.4 1.5 0 1.5 0 12.9" fill="#404040"/><rect x="12" y="1.5" width="1.3" height="11.36" fill="#404040"/><path d="M37.5,1.5H29.9a1.6,1.6,0,0,0-1.3.6A1.6,1.6,0,0,0,28,3.4V11a1.6,1.6,0,0,0,.6,1.3,1.6,1.6,0,0,0,1.3.6h7.6a1.6,1.6,0,0,0,1.3-.6,1.6,1.6,0,0,0,.6-1.3V6.9H35.3V8.2h2.8V11a.8.8,0,0,1-.2.4.5.5,0,0,1-.4.2H29.9l-.4-.2a.8.8,0,0,1-.2-.4V3.4a.5.5,0,0,1,.2-.4c.1-.2.2-.2.4-.2h7.6c.2,0,.3,0,.4.2a.5.5,0,0,1,.2.4v.5h1.3V3.4a1.6,1.6,0,0,0-.6-1.3A1.6,1.6,0,0,0,37.5,1.5Z" fill="#404040"/><polygon points="40.8 12.9 51.2 12.9 51.2 11.6 42.1 11.6 42.1 7.8 49.4 7.8 49.4 6.5 42.1 6.5 42.1 2.8 51.2 2.8 51.2 1.5 40.8 1.5 40.8 12.9" fill="#404040"/><polygon points="52.6 1.5 52.6 2.8 57.7 2.8 57.7 12.9 59 12.9 59 2.8 64 2.8 64 1.5 52.6 1.5" fill="#404040"/><circle cx="20.6" cy="7.2" r="1.1" fill="#d52d3e"/><path d="M22.9,3.7A1.1,1.1,0,1,0,24,4.8,1.1,1.1,0,0,0,22.9,3.7Z" fill="#d52d3e"/><path d="M22.9,8.5A1.1,1.1,0,1,0,24,9.6,1.1,1.1,0,0,0,22.9,8.5Z" fill="#d52d3e"/><path d="M18.2,3.7a1.1,1.1,0,1,0,1.1,1.1A1.1,1.1,0,0,0,18.2,3.7Z" fill="#d52d3e"/><path d="M18.2,8.5a1.1,1.1,0,1,0,1.1,1.1A1.1,1.1,0,0,0,18.2,8.5Z" fill="#d52d3e"/><path d="M26.2,6V3.4a1.5,1.5,0,0,0-.5-1.3,1.8,1.8,0,0,0-1.3-.6H21.1V1h2a.8.8,0,0,0-.8-.9H18.9a.9.9,0,0,0-.9.9h2v.5H14.9V12.9h9.5a1.8,1.8,0,0,0,1.3-.6,1.5,1.5,0,0,0,.5-1.3V8.4a1.4,1.4,0,0,0,.6-1.2A1.4,1.4,0,0,0,26.2,6ZM25,5.6V11l-.2.4-.4.2H16.8l-.5-.2a.6.6,0,0,1-.1-.4V3.4c0-.2,0-.3.1-.4a.6.6,0,0,1,.5-.2h7.6a.4.4,0,0,1,.4.2.5.5,0,0,1,.2.4Z" fill="#404040"/></svg>