<svg id="Layer_1" data-name="Layer 1" xmlns="http://www.w3.org/2000/svg" width="14.8" height="16" viewBox="0 0 14.8 16"><title>logo-16</title><circle cx="7.1" cy="9" r="1.4" fill="#d52d3e"/><path d="M10,4.6A1.4,1.4,0,0,0,8.6,6,1.3,1.3,0,0,0,10,7.3,1.3,1.3,0,0,0,11.3,6,1.3,1.3,0,0,0,10,4.6Z" fill="#d52d3e"/><path d="M10,10.6a1.3,1.3,0,0,0-1.4,1.3A1.4,1.4,0,0,0,10,13.3a1.3,1.3,0,0,0,1.3-1.4A1.3,1.3,0,0,0,10,10.6Z" fill="#d52d3e"/><path d="M4.2,4.6A1.4,1.4,0,0,0,2.8,6,1.3,1.3,0,0,0,4.2,7.3,1.3,1.3,0,0,0,5.5,6,1.3,1.3,0,0,0,4.2,4.6Z" fill="#d52d3e"/><path d="M4.2,10.6a1.3,1.3,0,0,0-1.4,1.3,1.4,1.4,0,0,0,1.4,1.4,1.3,1.3,0,0,0,1.3-1.4A1.3,1.3,0,0,0,4.2,10.6Z" fill="#d52d3e"/><path d="M14.1,7.4V4.2a2,2,0,0,0-.7-1.6,2,2,0,0,0-1.6-.7H7.7V1.2h2.5A1,1,0,0,0,9.2,0H5A1.1,1.1,0,0,0,3.9,1.1H6.4v.7H0V16H11.8a2,2,0,0,0,1.6-.7,2.1,2.1,0,0,0,.7-1.7V10.4a1.7,1.7,0,0,0,.7-1.5A1.8,1.8,0,0,0,14.1,7.4ZM12.5,7v6.6c0,.3,0,.4-.2.6l-.5.2H2.4l-.6-.2a1.1,1.1,0,0,1-.2-.6V4.2a.8.8,0,0,1,.2-.5c.2-.2.3-.2.6-.2h9.4c.2,0,.4,0,.5.2s.2.3.2.5Z" fill="#404040"/></svg>