<svg id="Layer_1" data-name="Layer 1" xmlns="http://www.w3.org/2000/svg" width="64" height="64" viewBox="0 0 64 64"><title>logo-64</title><polygon points="6.3 37.2 7.3 37.2 7.3 33.1 13.2 33.1 13.2 32.1 7.3 32.1 7.3 29.1 14.6 29.1 14.6 28 6.3 28 6.3 37.2" fill="#8c8c8c"/><rect x="15.9" y="28" width="1" height="9.14" fill="#8c8c8c"/><path d="M36.4,28H30.3a1.6,1.6,0,0,0-1.1.5,1.4,1.4,0,0,0-.4,1.1v6.1a1.3,1.3,0,0,0,.4,1,1.6,1.6,0,0,0,1.1.5h6.1a1.6,1.6,0,0,0,1.1-.5,1.3,1.3,0,0,0,.4-1V32.4H34.7v1h2.2v2.3a.4.4,0,0,1-.1.3H30l-.2-.3V29.6a.5.5,0,0,1,.2-.4h6.8c.1.1.1.2.1.4v.3h1v-.3a1.4,1.4,0,0,0-.4-1.1A1.6,1.6,0,0,0,36.4,28Z" fill="#8c8c8c"/><polygon points="39.1 37.2 47.4 37.2 47.4 36.1 40.1 36.1 40.1 33.1 46 33.1 46 32.1 40.1 32.1 40.1 29.1 47.4 29.1 47.4 28 39.1 28 39.1 37.2" fill="#8c8c8c"/><polygon points="48.6 28 48.6 29.1 52.7 29.1 52.7 37.2 53.7 37.2 53.7 29.1 57.8 29.1 57.8 28 48.6 28" fill="#8c8c8c"/><circle cx="22.8" cy="32.6" r="0.9"/><path d="M24.7,29.8a.9.9,0,1,0,.9.9A.9.9,0,0,0,24.7,29.8Z"/><path d="M24.7,33.7a.8.8,0,0,0-.9.8.9.9,0,0,0,1.8,0A.8.8,0,0,0,24.7,33.7Z"/><path d="M20.9,29.8a.9.9,0,0,0,0,1.8.9.9,0,0,0,0-1.8Z"/><path d="M20.9,33.7a.7.7,0,0,0-.8.8.8.8,0,0,0,.8.9.9.9,0,0,0,.9-.9A.8.8,0,0,0,20.9,33.7Z"/><path d="M27.4,31.6v-2a1.4,1.4,0,0,0-.5-1.1,1.4,1.4,0,0,0-1-.5H23.2v-.4h1.6a.6.6,0,0,0-.6-.7H21.4a.6.6,0,0,0-.6.7h1.6V28H18.2v9.2h7.7a1.8,1.8,0,0,0,1.5-1.5V33.6a1.5,1.5,0,0,0,0-2Zm-1.1-.3v4.4a.4.4,0,0,1-.1.3H19.4a.4.4,0,0,1-.1-.3V29.6c0-.2,0-.3.1-.4h6.8c.1.1.1.2.1.4Z"/></svg>