<svg id="Layer_1" data-name="Layer 1" xmlns="http://www.w3.org/2000/svg" width="16" height="16" viewBox="0 0 16 16"><title>logo-16</title><circle cx="7.7" cy="8.8" r="1.2"/><path d="M10.2,5.1A1.2,1.2,0,0,0,9,6.2a1.2,1.2,0,0,0,1.2,1.2,1.2,1.2,0,0,0,1.2-1.2A1.1,1.1,0,0,0,10.2,5.1Z"/><path d="M10.2,10.2A1.2,1.2,0,0,0,9,11.4a1.3,1.3,0,0,0,1.2,1.2,1.2,1.2,0,0,0,1.2-1.2A1.2,1.2,0,0,0,10.2,10.2Z"/><path d="M5.2,5.1A1.1,1.1,0,0,0,4,6.2,1.2,1.2,0,0,0,5.2,7.4,1.2,1.2,0,0,0,6.4,6.2,1.2,1.2,0,0,0,5.2,5.1Z"/><path d="M5.2,10.2A1.2,1.2,0,0,0,4,11.4a1.2,1.2,0,0,0,1.2,1.2,1.3,1.3,0,0,0,1.2-1.2A1.2,1.2,0,0,0,5.2,10.2Z"/><path d="M13.8,7.5V4.7a2.1,2.1,0,0,0-2-2H8.3V2.1h2.1a.8.8,0,0,0-.9-.9H5.9A.8.8,0,0,0,5,2H7.1v.6H1.6V14.9H11.8a2,2,0,0,0,1.4-.6,1.8,1.8,0,0,0,.6-1.4V10.1a1.6,1.6,0,0,0,.6-1.3A1.6,1.6,0,0,0,13.8,7.5Zm-1.4-.4v5.8a.6.6,0,0,1-.2.5l-.4.2H3.6l-.5-.2c-.1-.2-.2-.3-.2-.5V4.7a.5.5,0,0,1,.2-.4.6.6,0,0,1,.5-.2h8.2c.2,0,.3,0,.4.2s.2.2.2.4Z"/></svg>