<svg id="Layer_1" data-name="Layer 1" xmlns="http://www.w3.org/2000/svg" width="29.7" height="32" viewBox="0 0 29.7 32"><title>logo-32</title><circle cx="14.1" cy="17.9" r="2.7" fill="#d52d3e"/><path d="M19.9,9.2a2.7,2.7,0,1,0,2.7,2.7A2.7,2.7,0,0,0,19.9,9.2Z" fill="#d52d3e"/><path d="M19.9,21.1a2.7,2.7,0,1,0,2.7,2.7A2.7,2.7,0,0,0,19.9,21.1Z" fill="#d52d3e"/><path d="M8.3,9.2A2.7,2.7,0,1,0,11,11.9,2.7,2.7,0,0,0,8.3,9.2Z" fill="#d52d3e"/><path d="M8.3,21.1A2.7,2.7,0,1,0,11,23.8,2.7,2.7,0,0,0,8.3,21.1Z" fill="#d52d3e"/><path d="M28.3,14.9V8.5a4.6,4.6,0,0,0-1.4-3.4,4.6,4.6,0,0,0-3.4-1.4h-8V2.4a21.9,21.9,0,0,0,4.9-.3A2,2,0,0,0,18.3,0H9.9A2,2,0,0,0,7.8,2.1a23.7,23.7,0,0,0,5,.3V3.7H0V32H23.5a4.6,4.6,0,0,0,3.4-1.4,4.5,4.5,0,0,0,1.4-3.3V20.9a3.9,3.9,0,0,0,0-6ZM25.1,14V27.3a1.6,1.6,0,0,1-.5,1.1,1.4,1.4,0,0,1-1.1.4H4.7a1.5,1.5,0,0,1-1.1-.4,1.5,1.5,0,0,1-.4-1.1V8.5a1.4,1.4,0,0,1,.4-1.1,1.6,1.6,0,0,1,1.1-.5H23.5a1.4,1.4,0,0,1,1.1.5,1.4,1.4,0,0,1,.5,1.1Z" fill="#404040"/></svg>