<svg id="Layer_1" data-name="Layer 1" xmlns="http://www.w3.org/2000/svg" width="32" height="32" viewBox="0 0 32 32"><title>logo-32</title><circle cx="15.4" cy="17.7" r="2.4"/><path d="M20.4,10.1a2.3,2.3,0,0,0-2.3,2.4,2.3,2.3,0,0,0,2.3,2.3,2.3,2.3,0,0,0,2.4-2.3A2.4,2.4,0,0,0,20.4,10.1Z"/><path d="M20.4,20.4a2.3,2.3,0,0,0-2.3,2.4,2.3,2.3,0,0,0,2.3,2.3,2.3,2.3,0,0,0,2.4-2.3A2.4,2.4,0,0,0,20.4,20.4Z"/><path d="M10.4,10.1A2.4,2.4,0,0,0,8,12.5a2.3,2.3,0,0,0,2.4,2.3,2.3,2.3,0,0,0,2.3-2.3A2.3,2.3,0,0,0,10.4,10.1Z"/><path d="M10.4,20.4A2.4,2.4,0,0,0,8,22.8a2.3,2.3,0,0,0,2.4,2.3,2.3,2.3,0,0,0,2.3-2.3A2.3,2.3,0,0,0,10.4,20.4Z"/><path d="M27.6,15V9.5a4.2,4.2,0,0,0-1.1-2.9,4,4,0,0,0-2.9-1.2H16.5V4.2A27.9,27.9,0,0,0,20.9,4,1.8,1.8,0,0,0,19,2.1H11.7A1.7,1.7,0,0,0,9.9,4a25.5,25.5,0,0,0,4.3.2V5.4H3.1V29.9H23.6a4,4,0,0,0,2.9-1.2,4.4,4.4,0,0,0,1.1-2.9V20.2a3.2,3.2,0,0,0,1.3-2.6A3.3,3.3,0,0,0,27.6,15Zm-2.7-.8V25.8a1,1,0,0,1-.4.9,1.2,1.2,0,0,1-.9.4H7.2a1.1,1.1,0,0,1-.9-.4,1,1,0,0,1-.4-.9V9.5a1.3,1.3,0,0,1,.4-1,1.5,1.5,0,0,1,.9-.4H23.6a1.8,1.8,0,0,1,.9.4,1.3,1.3,0,0,1,.4,1Z"/></svg>