<svg id="Layer_1" data-name="Layer 1" xmlns="http://www.w3.org/2000/svg" width="256" height="256" viewBox="0 0 256 256"><title>logo-256</title><polygon points="25 148.7 29.2 148.7 29.2 132.5 52.7 132.5 52.7 128.3 29.2 128.3 29.2 116.3 58.4 116.3 58.4 112.1 25 112.1 25 148.7" fill="#8c8c8c"/><rect x="63.8" y="112.1" width="4.1" height="36.57" fill="#8c8c8c"/><path d="M145.7,112.1H121.3a6.1,6.1,0,0,0-6.1,6.1v24.4a6.1,6.1,0,0,0,6.1,6.1h24.4a6.1,6.1,0,0,0,6.1-6.1V129.4H138.6v4.2h9.1v9a1.8,1.8,0,0,1-.6,1.4,2,2,0,0,1-1.4.6H121.3a2.1,2.1,0,0,1-2-2V118.2a2,2,0,0,1,.6-1.4,1.7,1.7,0,0,1,1.4-.5h24.4a1.9,1.9,0,0,1,1.4.5,2,2,0,0,1,.6,1.4v1.5h4.1v-1.5a6.1,6.1,0,0,0-6.1-6.1Z" fill="#8c8c8c"/><polygon points="156.3 148.7 189.7 148.7 189.7 144.6 160.4 144.6 160.4 132.5 183.9 132.5 183.9 128.3 160.4 128.3 160.4 116.3 189.7 116.3 189.7 112.1 156.3 112.1 156.3 148.7" fill="#8c8c8c"/><polygon points="194.4 112.1 194.4 116.3 210.7 116.3 210.7 148.7 214.8 148.7 214.8 116.3 231 116.3 231 112.1 194.4 112.1" fill="#8c8c8c"/><circle cx="91.2" cy="130.5" r="3.5"/><path d="M98.7,119.2a3.5,3.5,0,0,0-3.5,3.5,3.5,3.5,0,0,0,7,0A3.5,3.5,0,0,0,98.7,119.2Z"/><path d="M98.7,134.6a3.5,3.5,0,1,0,3.5,3.5A3.5,3.5,0,0,0,98.7,134.6Z"/><path d="M83.7,119.2a3.5,3.5,0,0,0-3.5,3.5,3.5,3.5,0,0,0,3.5,3.5,3.4,3.4,0,0,0,3.5-3.5A3.5,3.5,0,0,0,83.7,119.2Z"/><path d="M83.7,134.6a3.5,3.5,0,0,0,0,7,3.5,3.5,0,1,0,0-7Z"/><path d="M109.5,126.5v-8.3a6.1,6.1,0,0,0-6.1-6.1H93v-1.7c5,0,6.4-.4,6.4-.4a2.6,2.6,0,0,0-2.8-2.7H85.8a2.6,2.6,0,0,0-2.7,2.7s1.3.4,6.4.4v1.7H72.9v36.6h30.5a6.1,6.1,0,0,0,6.1-6.1v-8.3a5,5,0,0,0,1.8-3.9A5.3,5.3,0,0,0,109.5,126.5Zm-4.1-1.1v17.2a2.1,2.1,0,0,1-2,2H79a2,2,0,0,1-1.4-.6,1.8,1.8,0,0,1-.6-1.4V118.2a2,2,0,0,1,.6-1.4,1.9,1.9,0,0,1,1.4-.5h24.4a1.7,1.7,0,0,1,1.4.5,2,2,0,0,1,.6,1.4Z"/></svg>