<svg xmlns="http://www.w3.org/2000/svg" width="29.7" height="32" viewBox="0 0 29.7 32"><circle cx="14.1" cy="17.9" r="2.7" fill="#d52d3e"/><path fill="#d52d3e" d="M19.9 9.2a2.7 2.7 0 1 0 2.7 2.7 2.7 2.7 0 0 0-2.7-2.7zm0 11.9a2.7 2.7 0 1 0 2.7 2.7 2.7 2.7 0 0 0-2.7-2.7zM8.3 9.2a2.7 2.7 0 1 0 2.7 2.7 2.7 2.7 0 0 0-2.7-2.7zm0 11.9a2.7 2.7 0 1 0 2.7 2.7 2.7 2.7 0 0 0-2.7-2.7z"/><path fill="#404040" d="M28.3 14.9V8.5a4.6 4.6 0 0 0-1.4-3.4 4.6 4.6 0 0 0-3.4-1.4h-8V2.4a21.9 21.9 0 0 0 4.9-.3A2 2 0 0 0 18.3 0H9.9a2 2 0 0 0-2.1 2.1 23.7 23.7 0 0 0 5 .3v1.3H0V32h23.5a4.6 4.6 0 0 0 3.4-1.4 4.5 4.5 0 0 0 1.4-3.3v-6.4a3.9 3.9 0 0 0 0-6zm-3.2-.9v13.3a1.6 1.6 0 0 1-.5 1.1 1.4 1.4 0 0 1-1.1.4H4.7a1.5 1.5 0 0 1-1.1-.4 1.5 1.5 0 0 1-.4-1.1V8.5a1.4 1.4 0 0 1 .4-1.1 1.6 1.6 0 0 1 1.1-.5h18.8a1.4 1.4 0 0 1 1.1.5 1.4 1.4 0 0 1 .5 1.1z"/></svg>