<svg xmlns="http://www.w3.org/2000/svg" width="256" height="256" viewBox="0 0 256 256"><path fill="#d52d3e" d="M197.3 25H58.7A33.7 33.7 0 0 0 25 58.7v138.6A33.7 33.7 0 0 0 58.7 231h138.6a33.7 33.7 0 0 0 33.7-33.7V58.7A33.7 33.7 0 0 0 197.3 25zm-5.6 69.4s5 56.9-48.4 85.9-93.3-2.7-93.3-2.7 31.5 2.9 48-13.6c0 0-23.6-.3-29.4-23.6l17 .8S57 135.4 57 109.1a39 39 0 0 0 13.9 3.1s-23.2-15.1-9.7-42.6c0 0 27.5 36.4 65.1 34.1 0 0-4.7-22.9 15.4-34.9s40.3 4.7 40.3 4.7a114.3 114.3 0 0 0 20.5-7.4s-3.5 13.2-11.6 16.3c0 0 6.6 1.9 15.1-3.1a31.8 31.8 0 0 1-14.3 15.1z"/></svg>